# xmcd CD database file
#
# Track frame offsets:
#	183
#	16153
#	44040
#	65595
#	76795
#	95485
#	116435
#	136648
#	153713
#	170445
#	192563
#	211428
#	228545
#	244430
#	270668
#	299003
#
# Disc length: 4333 seconds
#
# Revision: 0
# Processed by: cddbd v1.4PL0 Copyright (c) Steve Scherf et al.
# Submitted via: CDex 1.40Release
#
DISCID=ed10eb10
DTITLE=Più Bestial che Blues - Live
DYEAR=1900
DGENRE=Blues
TTITLE0=Why get up
TTITLE1=Change in the weather
TTITLE2=The Hootchie Cootchie Man
TTITLE3=Great Balls of Fire
TTITLE4=Homework
TTITLE5=I'm a Man
TTITLE6=I feel the Earth Move
TTITLE7=Natural Woman
TTITLE8=Nobody Knows you when you're down and out
TTITLE9=Out on the weekend
TTITLE10=Deep Darck Truthful Mirror
TTITLE11=The Fire down Below
TTITLE12=Hard to handle
TTITLE13=Play that funky music
TTITLE14=Hot Legs
TTITLE15=Watch the moon come down
EXTD=ID3G: 0
EXTT0=
EXTT1=
EXTT2=
EXTT3=
EXTT4=
EXTT5=
EXTT6=
EXTT7=
EXTT8=
EXTT9=
EXTT10=
EXTT11=
EXTT12=
EXTT13=
EXTT14=
EXTT15=
PLAYORDER=
